<?xml version="1.0" standalone="no"?>
<!DOCTYPE svg PUBLIC "-//W3C//DTD SVG 20010904//EN"
 "http://www.w3.org/TR/2001/REC-SVG-20010904/DTD/svg10.dtd">
<svg version="1.0" xmlns="http://www.w3.org/2000/svg"
 width="256.000000pt" height="256.000000pt" viewBox="0 0 256.000000 256.000000"
 preserveAspectRatio="xMidYMid meet">
<metadata>
Created by potrace 1.11, written by Peter Selinger 2001-2013
</metadata>
<g transform="translate(0.000000,256.000000) scale(0.100000,-0.100000)"
fill="#000000" stroke="none">
<path d="M1377 2158 c-8 -13 -29 -38 -45 -57 -25 -28 -32 -32 -50 -22 -17 9
-22 8 -27 -10 -4 -12 -15 -31 -25 -43 -10 -11 -27 -31 -37 -43 l-18 -23 -80
61 c-44 33 -96 73 -115 89 -42 35 -65 39 -57 10 3 -11 2 -20 -2 -20 -4 0 -7
-8 -8 -17 -2 -30 -9 -66 -23 -113 -7 -25 -14 -54 -16 -65 -1 -11 -3 -21 -4
-22 -3 -4 -7 -20 -9 -33 -1 -11 -75 -3 -103 11 -27 14 -49 0 -42 -26 5 -22 4
-22 -53 -19 -32 2 -79 6 -105 8 -51 5 -66 -7 -41 -36 8 -9 16 -22 17 -30 2 -7
7 -24 13 -38 40 -98 51 -138 42 -147 -7 -7 -6 -17 2 -31 7 -12 11 -23 9 -26
-11 -10 -182 -86 -195 -86 -28 0 -25 -20 8 -54 37 -38 35 -46 -20 -75 -13 -6
-23 -15 -23 -19 1 -4 26 -23 56 -42 31 -19 63 -42 73 -51 9 -9 27 -22 40 -28
22 -12 22 -13 5 -39 -9 -15 -23 -33 -32 -39 -9 -7 -13 -13 -9 -13 8 0 -91
-132 -106 -142 -6 -3 -12 -13 -13 -20 -1 -10 22 -18 85 -27 47 -7 100 -17 117
-22 31 -10 31 -10 20 -52 -6 -23 -14 -45 -19 -48 -4 -3 -5 -13 -2 -21 5 -13
20 -16 68 -15 l62 2 0 -97 c0 -53 4 -100 7 -104 4 -3 15 -3 25 1 10 5 23 9 28
11 20 5 175 63 184 68 7 5 43 -64 40 -77 0 -1 11 -28 25 -60 14 -31 25 -63 23
-69 -3 -17 34 -22 44 -6 8 10 12 9 24 -6 8 -11 15 -27 15 -36 0 -9 7 -17 15
-17 8 0 15 3 15 7 0 3 20 28 44 54 27 30 46 44 50 37 13 -21 31 -11 56 31 53
88 47 88 162 1 57 -43 108 -84 114 -92 14 -18 43 -7 42 16 -1 24 9 72 33 161
11 40 17 77 14 83 -4 5 -1 9 5 9 6 0 8 5 5 10 -8 12 74 4 114 -12 28 -10 41 3
34 34 -5 18 -1 19 88 13 51 -4 96 -8 100 -11 14 -8 17 24 5 42 -7 11 -19 37
-26 59 -7 22 -19 55 -27 72 -7 18 -12 34 -11 36 2 2 -3 11 -11 20 -11 14 -11
20 -1 32 10 12 10 18 0 30 -16 19 -20 16 70 58 81 38 120 52 133 49 4 -1 10 4
13 12 4 9 -8 27 -30 47 -20 17 -36 34 -36 38 0 4 14 15 30 24 17 10 30 22 30
26 0 5 -19 21 -42 36 -24 16 -52 38 -63 49 -11 12 -24 23 -30 25 -5 2 -18 9
-27 14 -15 10 -15 13 5 41 12 17 26 36 32 43 20 24 31 38 55 73 13 19 37 49
52 65 33 36 35 45 8 46 -11 1 -23 2 -27 3 -5 1 -30 5 -56 10 -27 4 -57 9 -68
12 -10 2 -28 6 -39 8 -31 7 -41 16 -33 29 4 7 9 23 11 37 2 13 8 27 13 31 5 3
7 12 4 20 -4 12 -19 14 -65 11 l-59 -4 0 103 c0 102 -10 131 -36 109 -6 -5
-53 -23 -104 -40 -51 -17 -98 -33 -106 -36 -14 -6 -30 22 -61 111 -9 28 -21
54 -25 59 -4 5 -5 15 -2 22 8 22 -26 29 -41 9 -12 -17 -15 -14 -28 25 -17 52
-30 59 -51 28z"/>
</g>
</svg>
