<svg version="1" xmlns="http://www.w3.org/2000/svg" width="334.667" height="334.667" viewBox="0 0 251.000000 251.000000"><path d="M139 1.2c-.1.7-2.7 4.1-5.9 7.6-4.3 4.6-6 5.8-6.5 4.7-.8-2.3-4.4-1.8-5.2.7-.6 2.1-10.1 14.8-11 14.8-1 0-29-21.4-30.5-23.2-2-2.5-5.5-2-5.2.7.2 2-8.4 38.5-9.2 39.4-.7.6-12.7-1.8-15.3-3.1-1.8-1-2.6-.9-3.9.5-1.3 1.3-1.5 2-.5 2.9 3.8 3.8.3 4.2-23.1 2.3-6.3-.5-8.3 1-5.5 4.3 2.7 3.1 12 29.4 10.9 30.5-1.5 1.5-1.4 3.6.4 5.4.9.8 1.5 1.9 1.3 2.4C29.4 92.4 4.2 104 1.9 104c-3.5 0-2.3 4.6 2.2 8.8l4.2 3.9-4.1 2.9c-6.5 4.6-5.9 5.8 7.8 15.9l12 8.8-2.3 3.1c-1.3 1.7-6.7 8.9-12 15.9C-.6 177-1.9 180 2.8 180c2.5 0 21 3.1 26.9 4.5 2.1.5 2.1.6.7 6.2-.8 3.2-1.9 6.6-2.4 7.5-1.4 2.4-1.2 4.8.3 4.9.6.1 5 0 9.5-.1l8.4-.2-.3 14.3c-.3 15.2 0 16.3 4.4 14 3.1-1.5 30.9-11.2 31.3-10.8.9.9 10.4 27 10.4 28.7 0 2.5 3.6 2.7 6.3.3 1.8-1.7 1.9-1.7 2.8 0 .8 1.3 2.3 1.7 6.2 1.7 4.9 0 5.6-.3 9.2-4 3.2-3.3 4.1-3.7 4.8-2.5 1.3 2.4 4.6 1.8 5.7-1.1.6-1.4 3.1-5.3 5.6-8.5l4.6-6 3.1 2.4c24.3 18.2 26.5 19.7 29.5 19.7 3.6 0 2.9 1.9 8.7-23 2-8.5 3.8-15.6 3.9-15.8.2-.1 3.6.5 7.7 1.4 12.3 2.6 12.5 2.5 12.1-2l-.3-3.8 10.8.6c5.9.4 12.5.9 14.6 1.2 3.4.5 3.7.4 3.7-1.8 0-1.3-.4-2.8-.9-3.4-1.8-1.8-12.1-29.9-11.1-30.2 1.4-.5 1.2-3.4-.5-5.6-1.4-1.8-.8-2.3 12.3-8.2 7.5-3.4 14.8-6.4 16.2-6.5 3.2-.5 4.1-4.4 1.2-5.3-1-.4-3.3-2.4-5-4.5l-3.1-3.8 2.7-2c1.5-1.1 3.5-2.2 4.5-2.6 2.2-.8 2.2-3.6-.1-4.5-2.7-1-15.2-10.4-15.2-11.4 0-.4-.6-.8-1.2-.8-.7-.1-2.6-1.1-4.2-2.4l-2.8-2.4 10.7-14.3c5.9-7.9 11.9-15.4 13.3-16.6 3.3-2.8 2.4-5.3-2-5.3-4.1-.1-28.6-4.5-29.4-5.3-.8-.7 1.5-10.6 2.9-12.8.6-.9.8-2.3.5-3.1-.5-1.2-2.3-1.4-9.2-1l-8.5.4.2-14.8c.1-15.8-.2-16.8-4.6-14.5-2.7 1.4-31.9 11.3-32.2 10.9-.4-.7-10-26.4-10.1-27.3-.1-.6-.2-1.6-.3-2.3-.2-2-3.8-1.4-5.4 1-1.5 2.3-1.5 2.3-3.1-1.6-.9-2.1-1.6-4.7-1.6-5.7 0-1.4-.7-1.9-3-1.9-1.7 0-3 .5-3 1.2z"/></svg>